<svg width="676" height="395" viewBox="0 0 676 395" fill="none" xmlns="http://www.w3.org/2000/svg">
<path d="M56.5 69.5L33 21L2.5 4L56.5 69.5ZM56.5 69.5L42 23.5L83.5 40M56.5 69.5L70 112.5M56.5 69.5L34.5 101.387M56.5 69.5H3L34.5 101.387M56.5 69.5L83.5 40M56.5 69.5L106.5 65M83.5 40L106.5 65M83.5 40L105.5 48.5556M137.5 61L163 74M137.5 61L106.5 65.5M137.5 61L105.5 48.5556M137.5 61L151 86.5M163 74L184 84.5L181.643 87.5M163 74L151 86.5M173 98.5L163 112M173 98.5L151 86.5M173 98.5L181.643 87.5M163 112L130.5 116M163 112L151 86.5M163 112L158.459 119M151 130.5L145.5 141.5L130.5 116M151 130.5L106.5 65.5M151 130.5L158.459 119M130.5 116L137.5 150.5L119.712 186.5M130.5 116L105.5 48.5556M130.5 116L151 86.5M130.5 116L74 161.5M130.5 116L70 112.5M116.5 193L74 161.5M116.5 193L82.5 259M116.5 193L118 227M116.5 193L119.712 186.5M74 161.5L108.5 202.5L88.5 237.5M74 161.5L88.5 237.5M74 161.5L70 112.5M88.5 237.5L69.5 281M88.5 237.5L32 246M69.5 281L64 313L48.5 300.5M69.5 281L48.5 300.5M69.5 281L32 246M69.5 281L94 318M69.5 281L134.5 257.5M48.5 300.5L64 320L56.5 343.5M48.5 300.5L56.5 343.5M48.5 300.5L1 283C11.1667 270.333 31.6 245.2 32 246M48.5 300.5C43.1667 282.667 32.4 246.8 32 246M56.5 343.5L42.5 354L38 324.5M56.5 343.5L38 324.5M38 324.5V350L5.5 337L38 324.5ZM70 112.5L45.5 184.5L12.5 94.5L34.5 101.387M70 112.5L34.5 101.387M70 112.5L106.5 65.5M106.5 65V65.5M106.5 65.5L151 86.5M181.643 87.5L216.5 101L214.588 106M181.643 87.5L199.5 154M203.5 135L199.5 154M203.5 135L158.459 119M203.5 135L207.706 124M199.5 154L189.5 173.5M199.5 154L168.5 167L179 202.5M189.5 173.5L179 202.5M189.5 173.5L137 188L173 210M189.5 173.5L158.459 119M179 202.5L173 210M179 202.5L119.712 186.5M173 210L168.5 225M168.5 225L154 256M168.5 225L119.712 186.5M168.5 225L118 227M154 256L146 277.5M154 256L134.5 257.5M154 256L118 227M146 277.5L139 289.5L82.5 259M146 277.5L134.5 257.5M82.5 259L134.5 300.5L124 318M82.5 259L124 318M82.5 259L134.5 257.5M82.5 259L118 227M124 318L110.5 343.5L94 318M124 318H94M94 318L108 347L87 341L94 318ZM94 318L82.5 337L66 318H94ZM94 318L134.5 257.5M134.5 257.5L118 227M158.459 119L214.588 106M158.459 119L207.706 124M214.588 106L212.294 112M207.706 124L212.294 112M212.294 112L207.706 141.5L237.5 118.285M212.294 112L223 112.697M243 114L223 112.697M243 114L237.5 118.285M243 114L245 130.5M243 114H251.5M223 112.697L247 147M223 112.697L237.5 118.285M247 147L245 130.5M247 147L265 132M247 147L236 189L278.5 170M247 147L278.5 170M237.5 118.285L245 130.5M245 130.5L251.5 114M245 130.5L265 132M251.5 114L265 132M251.5 114L272.5 99.8108M265 132L270 115M288.5 89L309 84.5L294.5 78.5M288.5 89L291.5 83.75M288.5 89L272.5 99.8108M288.5 89L283.5 95.25M288.5 89L304 90.5L298.5 94.0368M294.5 78.5L304 69M294.5 78.5L310 79.5M294.5 78.5L291.5 83.75M304 69L322.5 67M304 69L310 79.5M322.5 67H328.5M322.5 67L319 84M322.5 67L310 79.5M349.5 67L346 79.5M349.5 67H354M349.5 67H339M346 79.5L366 67H354M346 79.5L354 67M346 79.5L354 107.5L370 91M346 79.5L370 91M346 79.5L328.5 67M346 79.5L319 84M346 79.5L341 96M370 91L369 67L383.5 67.5M370 91L383.5 67.5M370 91L383.5 85.5M370 91L401 103M383.5 67.5L395 71.5M383.5 67.5V85.5M395 71.5L408.5 78M395 71.5L383.5 85.5M408.5 78L418 89.5M408.5 78L401 103M408.5 78L383.5 85.5M418 89.5L429 95M418 89.5L438 122.5L452.5 107.5M418 89.5L419.5 104M418 89.5L401 103M429 95L452.5 107.5M429 95L419.5 104M452.5 107.5L461 112.762M452.5 107.5L445.5 129L452 127M463 114L466.635 117.5M463 114L452 127M463 114L461 112.762M476.5 127L480.864 131.5M476.5 127L466.635 117.5M476.5 127H452M492.5 143.5L506 157.5M492.5 143.5L496.5 171.5M492.5 143.5L477 145.5L480.864 131.5M492.5 143.5L480.864 131.5M506 157.5L516.5 170.5M506 157.5L503.5 175.5C508.167 173.833 517.3 170.5 516.5 170.5M506 157.5L496.5 171.5M516.5 170.5L529.5 187H520L516.5 170.5ZM496.5 171.5L485 163.5M496.5 171.5L487 199M480.864 131.5L460.5 141.5L466.635 117.5M466.635 117.5L452 127M452 127L461 112.762M419.5 104L436.5 123.5L407 121.5M419.5 104L407 121.5M407 121.5L376.5 147M407 121.5L405.032 175.026M407 121.5L392 117.114M407 121.5L416.5 124.5M401 103L383.5 85.5M328.5 67H339M339 67L319 84M319 84L341 96M291.5 83.75L317.5 92.5M317.5 92.5L308 103.5M317.5 92.5L298.5 94.0368M308 103.5L293.5 97M308 103.5L275.667 106M308 103.5L270 115M293.5 97L270 115M293.5 97L278.5 101.5M270 115L272.5 99.8108M270 115L275.667 106M270 115L289 113M270 115V123.5M278.5 101.5L283.5 95.25M278.5 101.5L275.667 106M283.5 95.25L298.5 94.0368M289 113L270 123.5M289 113L277 132M289 113V133.5M270 123.5L277 132M270 123.5L296.5 120.5M277 132L289 133.5M277 132L296.5 120.5M296.5 120.5L289 133.5M296.5 120.5L310.5 130M289 133.5L305 130.895M310.5 130L305 130.895M310.5 130L321 126M305 130.895L303.5 109.5L321 126M321 126L322 99.8108M321 126L329.5 117.114M322 99.8108L332 114.5L329.5 117.114M322 99.8108L341 96M322 99.8108L335 110.5L341 96M278.5 170L310.5 137.5L337.5 154M278.5 170L337.5 154M278.5 170V221M278.5 170L339.5 200M337.5 154L339.5 200M337.5 154L346 112.762M337.5 154L329.5 117.114M337.5 154L360.5 150M278.5 221L261 261.5L344 265.5M278.5 221L344 265.5M278.5 221L339.5 200M344 265.5L399 269.5M344 265.5L393.399 242M344 265.5L389 217.5M344 265.5L352.5 277.5L359 272.5M344 265.5L359 272.5M344 265.5L339.5 200M399 269.5L417 276M399 269.5L407 242M399 269.5C397.463 262.092 395.315 251.613 393.399 242M417 276L393.5 293L425.5 297.5M417 276L433.5 254M417 276L425.5 297.5M417 276H438.5M417 276L407 242M425.5 297.5L421 319L438.5 310.5M425.5 297.5L438.5 310.5M425.5 297.5L438.5 276M425.5 297.5L448 284.5M438.5 310.5L453.5 329M438.5 310.5L442.5 279.579M438.5 310.5L457 292.115M438.5 310.5L454 314M453.5 329L431.5 321.5L463 351.5M453.5 329L446 355.5L463 351.5M453.5 329L463 351.5M453.5 329L454 314M453.5 329L475.5 341.5M463 351.5L475.5 341.5M475.5 341.5L482.5 329M475.5 341.5L466 329.5L482.5 329M482.5 329L479.5 313M482.5 329L461.5 324.5L479.5 313M479.5 313L454 314M479.5 313L467.343 301.5M461 295.5L457 292.115M461 295.5L467.343 301.5M461 295.5L454 314M448 284.5L442.5 279.579M448 284.5L457 292.115M438.5 276L433.5 254M438.5 276L442.5 279.579M433.5 254L407 242M433.5 254L431.5 237M457 292.115L454 314M454 314L467.343 301.5M407 242C414.833 240.333 430.7 237 431.5 237M407 242C401.333 234.167 389.8 218.3 389 217.5M407 242H393.399M431.5 237C432.3 237 442.833 231.333 448 228.5M431.5 237L440 208.5M448 228.5L453.5 271M448 228.5L465.5 236M448 228.5L465.5 218.5M448 228.5L458.5 208.5L465.5 218.5M448 228.5L440 208.5M453.5 271L470.5 301.5L486 290.5M453.5 271L486 290.5M453.5 271L496.5 268M453.5 271L479.5 258M453.5 271L465.5 236M486 290.5L497.5 318M486 290.5L512 310L497.5 318M486 290.5L506 276.5M486 290.5L496.5 268M497.5 318L486.5 310L487.5 319L497.5 318ZM506 276.5L520.5 293M506 276.5L526 281.5L520.5 293M506 276.5L529.5 278L519.5 268M506 276.5L519.5 268M506 276.5L496.5 268M520.5 293L505 294L515 308.5L520.5 293ZM519.5 268L515 260L496.5 268M519.5 268H496.5M496.5 268L479.5 258M496.5 268L504.5 251.5M496.5 268L511 256L504.5 251.5M479.5 258L504.5 251.5M479.5 258L493 241L504.5 251.5M479.5 258L487.5 237L479.176 230M479.5 258L472.338 224.25M465.5 218.5V236M465.5 218.5L472.338 224.25M465.5 236L479.176 230M479.176 230L472.338 224.25M389 217.5L440 208.5M389 217.5C388.535 217.035 390.746 228.687 393.399 242M389 217.5L404.5 189.5M389 217.5L339.5 200M440 208.5L404.5 189.5M440 208.5L454.5 202L451 188L440 208.5ZM404.5 189.5L440.818 154.776M404.5 189.5L405.032 175.026M404.5 189.5L376.5 147M339.5 200L360.5 150M339.5 200L376.5 147M339.5 200L377.5 194.5M187.5 285.714L217 299L191 213L151.5 269.5L187.5 285.714ZM187.5 285.714L223 261.5L230.5 313M187.5 285.714L227 310.779M187.5 285.714L186 294.107M187.5 285.714L190 294.864M230.5 313L236 291L246 318L230.5 313ZM230.5 313L227 310.779M184.5 302.5L188.5 316.5L198 318M184.5 302.5L186 294.107M184.5 302.5L191.5 310M198 318L188.5 319.5L195 326L198 318ZM198 318L199.5 329L213 332M198 318L212 322.308M198 318L213 332M198 318L208.5 309M198 318L191.5 310M213 332L224 326M213 332L212 322.308M224 326L227 319.5M224 326L208.5 309M224 326L212 322.308M227 319.5V310.779M227 319.5L208.5 309M227 319.5L212 306M227 310.779L212 306M212 306L196 296M212 306L191.5 310M196 296L191.5 310M196 296L190 294.864M186 294.107L208.5 309M186 294.107L190 294.864M208.5 309L212 322.308M191.5 310L190 294.864M248 316.5L257 300.5L268 285M248 316.5L268 314M248 316.5L246.5 333.5L268 350.5M248 316.5L268 350.5M268 285L276.5 274M268 285L279.5 280M268 285V299.5M276.5 274L291.5 272.5M276.5 274L279.5 280M291.5 272.5L305 276.5L291.5 281.5V272.5ZM291.5 272.5L279.5 280M268 314L292 329M268 314L274.5 349.5M268 314L283.5 295.5M268 314V299.5M268 350.5L261 355M268 350.5L249 338.5L261 355M261 355L271 361.5L274.5 349.5M274.5 349.5L276 361.5L286.5 357.5L274.5 349.5ZM274.5 349.5L292 329M292 329V350.5L312.5 296.5M292 329L312.5 296.5M312.5 296.5L329 275.5M312.5 296.5L321.5 298.5L323 295.5M312.5 296.5L308.5 316M312.5 296.5L322 315.5M283.5 295.5L268 299.5M283.5 295.5L298 286.5M283.5 295.5L285.5 280M283.5 295.5L274 316L280.5 319M283.5 295.5L280.5 319M268 299.5L285.5 280M268 299.5L271 286.5L285.5 280M285.5 280L298 286.5M298 286.5V309.5L298.156 309.104M299.5 288.5L303.5 295.5L298.156 309.104M299.5 288.5L309 281.5V292.5L299.5 288.5ZM298.156 309.104C294.104 305.236 286.3 297.9 287.5 299.5C288.7 301.1 290.667 312.5 291.5 318M298.156 309.104L291.5 318M291.5 318L280.5 319M291.5 318L286 308L280.5 319M329 275.5L340.5 267.5L345 275.5M329 275.5H345M329 275.5L323 295.5M329 275.5L332 277.717M345 275.5L340.5 284M340.5 284L348 275.5L355 281.5M340.5 284L332 277.717M340.5 284L355 281.5M355 281.5L358.779 272.998M355 281.5L362.5 283L358.779 272.998M355 281.5L337.5 291.5M355 281.5L358.779 291.5M359 272.5L358.779 272.998M337.5 291.5L323 295.5M337.5 291.5L332 277.717M337.5 291.5L322.5 300.5L329 310M337.5 291.5L329 310M337.5 291.5H358.779M323 295.5L332 277.717M329 310L340.5 296.5M329 310L340.5 313.5V296.5M358.779 291.5L340.5 296.5M358.779 291.5L357.5 298.5L340.5 296.5M358.779 291.5L360.5 286.5M340.5 296.5L355 303L345 313.5M360.5 286.5H366L362.5 298L360.5 286.5ZM352 328.5L345 316L361.5 303L355.912 318M352 328.5L322 315.5M352 328.5L316 333M352 328.5L349 336L361 338.5M352 328.5L355.912 318M308.5 316L322 315.5M308.5 316L316 333M308.5 316L301 336M322 315.5L316 333M316 333C317.167 342.833 319.5 362.7 319.5 363.5M316 333L311 363.5M316 333L301 336M316 333L334.5 364.5L345 338.5L316 333ZM301 336L292 353.5L311 363.5M301 336L311 363.5M311 363.5L291.5 360.5V365M311 363.5L291.5 365M311 363.5L318.5 380.5M311 363.5H319.5M311 363.5L306.883 373M291.5 365L304.5 378.5M291.5 365L306.883 373M304.5 378.5L318.5 380.5M304.5 378.5L306.883 373M318.5 380.5L330 376.5C326.5 372.5 319.5 364.3 319.5 363.5M318.5 380.5L319.5 363.5M352 376.5L334.5 384.5L349 394L352 376.5ZM352 376.5L334.5 380.5V370.5M352 376.5L356.5 393.5L372.786 384.5M352 376.5L377.259 379.372M352 376.5L372.786 384.5M352 376.5L334.5 370.5M352 376.5L342 352.5M352 376.5L368.5 371.262M334.5 370.5L342 352.5M334.5 370.5L368.5 371.262M342 352.5L347 340.5L361 338.5M342 352.5L368.5 371.262M342 352.5L374.5 343.5M342 352.5L361 338.5M361 338.5L355.912 318M361 338.5L363.5 328.5M361 338.5L372 342.574M361 338.5L371.163 333.341M355.912 318L366 308M355.912 318L363 323L366 308M366 308L378.5 303M366 308L374.5 313.5M378.5 303L387 309.104M378.5 303V313.5M378.5 303L374.5 313.5M387 309.104L396 318M387 309.104L378.5 313.5M387 309.104L387.5 316.052M396 318V328.5M396 318L387.5 316.052M396 318L389.737 321.914M396 328.5L393.5 337.5L389.879 348M396 328.5H390.5M396 328.5L389.737 321.914M383.5 366.5L377.259 379.372M383.5 366.5L368.5 371.262M383.5 366.5L389.879 348M383.5 366.5L374.5 343.5M375.5 383L385 366.5L389 376.5L375.5 383ZM375.5 383L377.259 379.372M375.5 383L372.786 384.5M368.5 371.262L374.5 343.5M374.5 343.5L389.879 348M374.5 343.5L372 342.574M374.5 313.5H378.5M378.5 313.5L373 325.5L376.568 330.598M378.5 313.5L384 315M378.5 313.5L379.5 328.5M383.5 340.5L379.5 328.5M383.5 340.5L389 334L383.123 330.598M383.5 340.5L376.568 330.598M379.5 328.5L384 315M379.5 328.5L388 323M379.5 328.5H390.5M379.5 328.5L383.123 330.598M379.5 328.5H363.5M384 315L388 323M388 323L390.5 328.5M388 323L383.123 330.598M388 323L387.5 316.052M388 323L389.737 321.914M390.5 328.5L389.879 348M363.5 328.5L369.5 315L371.163 333.341M363.5 328.5L371.163 333.341M372 342.574L371.163 333.341M376.568 330.598L371.163 333.341M410 328.5H401L408 314L410 328.5ZM410 328.5L399 345.5L423 334M410 328.5L417 352.5M410 328.5L423 334M423 334L429.5 338.5L417 352.5M417 352.5L396 372.5L416 380.5M417 352.5L416 380.5M417 352.5L441.5 348M417 352.5L434 341.5L441.5 348M416 380.5L429.5 382L424 364.5L416 380.5ZM441.5 348L444.5 362M441.5 348L429.5 357.5L444.5 362M444.5 362L435 375L426 362H444.5ZM360.5 150L377.5 194.5M360.5 150L404.5 174.727M377.5 194.5L405.032 175.026M439 151L423 173L452 178M439 151L405.032 175.026M439 151L429 129M439 151L451 139.5L429 129M439 151L400 146.5M439 151L439.417 151.867M452 178L440.818 154.776M452 178L460.184 145.5M452 178L478.669 159.138M440.818 154.776L439.417 151.867M440.818 154.776L454.5 141.5L460.184 145.5M376.5 147L392 117.114M376.5 147L377.5 114M376.5 147L416.5 124.5M346 112.762L362.5 109.5M346 112.762L337.5 114L360.5 145.5L362.5 109.5M362.5 109.5L370 127L377.5 114M362.5 109.5L377.5 114M405.032 175.026L404.5 174.727M392 117.114L377.5 114M416.5 124.5L429 129M429 129L400 146.5M400 146.5L404.5 174.727M439.417 151.867L468 151M468 151L460.184 145.5M468 151L472.338 154.776M472.338 154.776V178M472.338 154.776L478.669 159.138M472.338 178L485 163.5M472.338 178L460.184 206.5L487 199M485 163.5L478.669 159.138M485 163.5L487 199M487 199L480.864 220.5L509.5 200M487 199L509.5 200M487 199L500 173L514.5 186M487 199L514.5 186M509.5 200L514.5 186M509.5 200L523.5 192.5L514.5 186M509.5 200L498.5 230M509.5 200L529.5 217.5M498.5 230L529.5 217.5M498.5 230L534.5 245.5M498.5 230L538 231L534.5 245.5M529.5 217.5L528 194.5M529.5 217.5L508 246.5L534.5 245.5M529.5 217.5L534.5 245.5M528 194.5L535.5 202L532 215M528 194.5L532 215M532 215L539.5 206.5L547 216.5M532 215L547 216.5M534.5 245.5L552 262L547 271M534.5 245.5L547 271M547 216.5L540 229.5L551 226.5M547 216.5L551 226.5M551 226.5L549 210.5L567 228.5M551 226.5L536.5 243.5L554 242M551 226.5L554 242M567 228.5L581 252.5M567 228.5L554 242M567 228.5L597 190.5M567 228.5L650.5 198.5M567 228.5L552.5 206.5M581 252.5L601 315M581 252.5L650.5 198.5M581 252.5L624 292.115M601 315L554 268L578 272.5L601 315ZM601 315L624 292.115M547 271L533 276.5L534.5 265L547 271ZM554 242L547 251.5L554 255V242ZM597 190.5L650.5 198.5M597 190.5L540 189.5M597 190.5L594.5 151M650.5 198.5L594.5 151M540 189.5L552.5 206.5M540 189.5L574.5 157.5M552.5 206.5L594.5 151M594.5 151L574.5 157.5M594.5 151L596.5 109M594.5 151L639.5 131.5M594.5 151L558.5 96.5M594.5 151L520 135.5M574.5 157.5L525 175.5L539.5 189.5L520 135.5M574.5 157.5L520 135.5M520 135.5L521.5 169L506.274 153.119M520 135.5L596.5 109M520 135.5L515 91M520 135.5L495.134 141.5M520 135.5L556 65.5M515 91L475 120.5L480.864 126.616M515 91L531.5 80M515 91L495.134 141.5M515 91L506.274 153.119M515 91L480.864 126.616M531.5 80L556 65.5M531.5 80L558.5 96.5M556 65.5L574.5 52.5M556 65.5L596.5 109M574.5 52.5L583 47.6887M574.5 52.5L599.49 61.5M574.5 52.5L596.5 109M574.5 52.5L558.5 96.5M601 37.5L651 52.5L629 19.25M601 37.5L615 28.375M601 37.5L583 47.6887M601 37.5L599.49 61.5M629 19.25L657 1L661.5 21L629 19.25ZM629 19.25L615 28.375M615 28.375L642.5 77.5M642.5 77.5L583 47.6887M642.5 77.5L596.5 109M642.5 77.5L599.49 61.5M596.5 109L599.49 61.5M596.5 109L660 96.5L639.5 131.5M596.5 109L639.5 131.5M639.5 131.5L558.5 96.5M495.134 141.5L506.274 153.119M495.134 141.5L480.864 126.616M624 292.115L669.5 233L675.5 265L624 292.115Z" stroke="url(#paint0_linear_1081_99)" stroke-width="0.5"/>
<defs>
<linearGradient id="paint0_linear_1081_99" x1="338.25" y1="1" x2="338.25" y2="394" gradientUnits="userSpaceOnUse">
<stop stop-color="#FEDCB2"/>
<stop offset="0.195833" stop-color="#FF52C6"/>
<stop offset="0.388542" stop-color="#7A65FD"/>
<stop offset="0.591667" stop-color="#7CC0FF"/>
<stop offset="0.732292" stop-color="#705EE3"/>
<stop offset="0.872917" stop-color="#FF52C6"/>
<stop offset="1" stop-color="#FEDCB2"/>
</linearGradient>
</defs>
</svg>
