<svg width="156" height="70" viewBox="0 0 156 70" fill="none" xmlns="http://www.w3.org/2000/svg">
<path d="M7.80247 44.3415H8.62208V43.7584M7.80247 44.3415H7.41376M7.80247 44.3415L7.83863 44.9245M3.13792 44.3415L5.85891 46.285M3.13792 44.3415L3.0882 44.9245M3.13792 44.3415H2.19326V43.7584M3.13792 44.3415H4.98431M1.48062 63.7771H2.74921M1.48062 63.7771L1.67949 61.4448M1.48062 63.7771L1.24031 66.5953M9.00778 63.7771H8.21077M9.00778 63.7771L8.8752 61.6392M9.00778 63.7771L9.18255 66.5953M2.74921 63.7771L3.72099 64.7489M2.74921 63.7771H3.72099M2.74921 63.7771L3.3624 63.1277M5.27584 66.3037V69.4134H5.76921V65.7207M5.27584 66.3037L5.76921 65.7207M5.27584 66.3037L4.98431 66.0122M5.27584 66.3037V27.2381M7.41376 63.7771H8.21077M7.41376 63.7771L6.92039 64.3602M7.41376 63.7771H6.63633M8.62208 57.5577L8.8752 61.6392M8.62208 57.5577L7.03256 59.241M8.62208 57.5577L8.50155 55.6141M8.21077 63.7771L4.1097 59.241M2.06067 56.9746L2.19326 55.4198M2.06067 56.9746L1.67949 61.4448M2.06067 56.9746L3.615 58.6938M2.19326 55.4198L2.30927 54.0593M2.19326 55.4198H4.69277M2.19326 55.4198L4.1097 57.4255M6.44198 59.8664L6.78681 59.5013M6.44198 59.8664L5.4702 58.8494M6.44198 59.8664L4.4877 61.936M6.78681 59.5013L8.8752 61.6392M6.78681 59.5013L7.03256 59.241M1.67949 61.4448L2.8946 60.3429M1.67949 61.4448L3.3624 63.1277M4.1097 59.241H7.03256M4.1097 59.241L2.8946 60.3429M4.1097 59.241L3.615 58.6938M5.4702 58.8494L8.50155 55.6141M5.4702 58.8494L4.4877 57.8211M8.50155 55.6141L8.4895 55.4198M8.4895 55.4198L8.40513 54.0593M8.4895 55.4198H5.85891M2.30927 54.0593H3.13792M2.30927 54.0593L2.49157 51.9214M8.40513 54.0593L5.85891 55.4198M8.40513 54.0593H5.85891M8.40513 54.0593L8.36631 53.4334M3.13792 54.0593L5.85891 55.4198M3.13792 54.0593H4.69277M5.85891 55.4198H4.69277M2.49157 51.9214L4.30406 53.6817M2.49157 51.9214L2.61979 50.4177M2.49157 51.9214L5.11061 50.5609M4.69277 54.0593L4.30406 53.6817M4.69277 54.0593H5.85891M4.30406 53.6817L5.7502 52.2121M8.13996 49.7834L8.17929 50.4177M8.13996 49.7834L6.44198 51.5091M8.13996 49.7834L8.08517 48.9M5.85891 54.0593V63.7771M5.85891 54.0593V53.4334M5.85891 44.3415V44.9245M5.85891 44.3415H5.40767M5.85891 44.3415H7.41376M5.85891 63.7771H3.72099M5.85891 63.7771H6.63633M1.24031 66.5953L1 69.4134H1.38871L1.67949 66.2684M1.24031 66.5953L1.67949 66.2684M3.72099 64.7489V63.7771M3.72099 64.7489L4.1097 65.1376M3.72099 64.7489L1.67949 66.2684M6.92039 64.3602L6.63633 64.6959M6.92039 64.3602L8.69078 66.1094M9.18255 66.5953L9.35732 69.4134H8.77425L8.69078 66.1094M9.18255 66.5953L8.69078 66.1094M5.85891 50.1722V48.8117M5.85891 50.1722L5.11061 50.5609M5.85891 50.1722V51.3092M2.61979 50.4177H4.30406M2.61979 50.4177L2.80646 48.2286M8.17929 50.4177H4.30406M8.17929 50.4177L8.24844 51.5327M4.30406 50.4177L4.98431 49.7151M5.85891 48.8117V46.6737M5.85891 48.8117L4.98431 49.7151M2.80646 48.2286L2.97219 46.285M2.80646 48.2286L4.48793 47.158M5.85891 46.285H3.615M5.85891 46.285L4.48793 47.158M5.85891 46.285V46.6737M5.85891 46.285V45.6048M5.85891 46.285H6.83069M7.923 46.285L8.08517 48.9M7.923 46.285L7.83863 44.9245M7.923 46.285H6.83069M2.97219 46.285L3.0882 44.9245M2.97219 46.285H3.615M3.0882 44.9245H3.52663M5.85891 44.9245H3.52663M5.85891 44.9245H7.83863M5.85891 44.9245V45.6048M6.63633 64.6959V63.7771M6.63633 64.6959L6.26257 65.1376M5.40767 40.6487H3.52663M5.40767 40.6487H5.4702M5.40767 40.6487L4.46715 39.7741M5.40767 40.6487L6.41072 39.7741M5.40767 40.6487V41.2318M5.40767 44.3415V41.2943M5.40767 44.3415H4.98431M3.52663 40.6487L7.41376 37.1503M3.52663 40.6487V38.8995M3.52663 40.6487H2.85995M3.52663 40.6487V41.2318M3.52663 44.9245V43.1753M7.41376 40.6487H8.62208V41.8148M7.41376 40.6487V41.8148M7.41376 40.6487L3.52663 37.1503M7.41376 40.6487H5.4702M7.41376 40.6487V38.8995M7.41376 44.3415V41.8148M3.52663 43.1753L5.40767 41.2943M3.52663 43.1753H7.28871L5.40767 41.2943M3.52663 43.1753V41.8148M5.40767 41.2943V41.2318M2.19326 43.7584V41.8148M2.19326 43.7584H2.85995M8.62208 43.7584V41.8148M8.62208 43.7584H2.85995M7.41376 41.8148H8.62208M2.19326 41.8148V40.6487H2.85995M2.19326 41.8148H3.52663M3.52663 41.8148V41.2318M3.52663 37.1503V38.8995M3.52663 37.1503H2.97219M3.52663 37.1503H3.91535M7.41376 37.1503V38.8995M7.41376 37.1503H7.923V39.2882H8.96861V32.8744H7.41376M7.41376 37.1503H6.05327M7.41376 37.1503V34.818M5.4702 37.1503V40.6487M5.4702 37.1503H3.91535M5.4702 37.1503H6.05327M3.52663 38.8995L4.46715 39.7741M7.41376 38.8995L6.41072 39.7741M4.46715 39.7741H6.41072M2.97219 32.8744H2.37481M2.97219 32.8744V37.1503M2.97219 32.8744V31.3522M2.97219 32.8744H4.98431M2.97219 31.1252V31.3522M2.97219 31.1252H4.98431M2.97219 31.1252H2.80646M2.80646 28.793H2.19326V31.1252H2.80646M2.80646 28.793V27.1409M2.80646 28.793V31.1252M2.80646 28.793H3.33228V27.1409M2.80646 25.4889V27.1409M2.80646 25.4889H6.41072M2.80646 25.4889V24.3228M8.38554 25.4889V23.934M8.38554 25.4889V27.1409M8.38554 25.4889H7.2194M7.41376 31.1252H8.38554V29.1817M7.41376 31.1252V31.3522M7.41376 31.1252H6.83069M7.41376 32.8744V34.818M7.41376 32.8744H6.41072M7.41376 32.8744V31.3522M2.37481 32.8744H1.77743V37.1503H2.37481M2.37481 32.8744V37.1503M2.37481 37.1503H2.97219M3.91535 37.1503V36.0813M3.91535 35.0124V32.8744L4.19125 32.1133M3.91535 35.0124V36.0813M3.91535 35.0124L4.98431 36.0813M6.05327 37.1503L4.98431 36.0813M3.91535 36.0813H4.98431M4.98431 36.0813L5.85891 35.6265M7.41376 34.818L6.41072 34.0406H4.98431V35.0124L5.85891 35.6265M7.41376 34.818L5.85891 35.6265M4.46715 31.3522H2.97219M4.46715 31.3522L4.19125 32.1133M4.46715 31.3522H7.41376M4.19125 32.1133H4.98431V32.8744M4.98431 32.8744H6.41072M6.41072 32.8744V32.1133V31.1252M6.41072 31.1252H6.27276M6.41072 31.1252H6.83069M5.4702 31.1252H4.98431M5.4702 31.1252V29.9591M5.4702 31.1252H6.27276M4.98431 24.3228H5.4702V27.1409M4.98431 24.3228V27.1409M4.98431 24.3228V23.0594M4.98431 31.1252V27.1409M2.80646 27.1409H3.33228M4.98431 27.1409H4.69277M4.98431 27.1409V66.0122M2.80646 23.934V24.3228M2.80646 23.934H3.89538M2.80646 23.934V23.0594M8.38554 23.934H8.96861V27.1409H8.38554M8.38554 23.934H7.60812M8.38554 23.934V20.8243H7.60812M8.38554 27.1409H7.2194M8.38554 27.1409V28.4042M5.4702 27.1409V28.4042M5.4702 27.1409H5.66455M6.41072 25.4889V27.1409M6.41072 25.4889H6.83069M6.41072 27.1409H6.48275M6.41072 27.1409H6.27276M6.83069 27.1409V25.4889M6.83069 27.1409H7.2194M6.83069 27.1409H6.48275M6.83069 25.4889H7.2194M7.2194 25.4889V27.1409M6.83069 27.2381V28.4042M6.83069 28.4042H6.48275M6.83069 28.4042V31.1252M6.83069 28.4042H8.38554M5.4702 28.4042H5.66455M5.4702 28.4042V29.1817M5.66455 27.1409V28.4042M5.66455 27.1409H5.85891M5.66455 28.4042H5.85891M5.85891 28.4042V27.1409M5.85891 28.4042H6.13481M5.85891 27.1409H6.13481M6.13481 27.1409V28.4042M6.13481 27.1409H6.27276M6.13481 28.4042H6.27276M6.48275 28.4042V27.1409M6.48275 28.4042H6.27276M6.27276 27.1409V28.4042M5.4702 29.9591H6.27276V31.1252M5.4702 29.9591V29.1817M5.4702 29.1817H8.38554M8.38554 29.1817V28.4042M3.33228 27.1409H4.69277M2.80646 24.3228H2.19326M2.19326 24.3228H1.38871V25.8776H2.19326V24.3228ZM3.89538 22.1848H4.98431V23.0594M3.89538 22.1848V23.934M3.89538 22.1848H3.72099M3.89538 23.934H5.22226M2.80646 23.0594V22.1848H2.97219M2.80646 23.0594H4.98431M2.97219 22.1848V20.2413H3.34659M2.97219 22.1848H3.72099M3.72099 22.1848V20.2413H3.34659M3.34659 20.2413V16.5485H3.89538M7.60812 23.934V20.8243M7.60812 23.934H5.66455M7.60812 20.8243V18.8808M5.66455 23.934V22.1848V16.5485M5.66455 23.934H5.22226M5.66455 16.5485H5.22226M5.66455 16.5485H6.05327M3.89538 16.5485H4.77997M3.89538 16.5485V18.2977M7.60812 18.8808V18.2977M7.60812 18.8808H7.02505M4.77997 16.5485V18.8808M4.77997 16.5485H5.00111M4.77997 18.8808H3.89538V18.2977M4.77997 18.8808H5.22226M3.89538 18.2977H7.60812M7.60812 18.2977V16.5485H7.02505M5.22226 16.5485V18.8808M5.22226 16.5485H5.00111M5.22226 18.8808H7.02505M5.22226 18.8808V23.934M7.02505 16.5485V18.8808M7.02505 16.5485H6.05327M4.1097 65.1376H6.26257M4.1097 65.1376L4.69277 65.7207M6.26257 65.1376L5.76921 65.7207M5.00111 16.5485V14.0219H4.49841V13.4388M6.05327 16.5485V14.0219M4.49841 13.0501V12.6614H4.88713V8.19119M4.49841 13.0501H6.05327M4.49841 13.0501V13.2445M6.05327 13.0501V12.6614H5.66455V8.19119M6.05327 13.0501V13.2445M6.05327 13.4388V13.2445M6.05327 13.4388H5.08148M6.05327 13.4388V14.0219M4.49841 13.4388V13.2445M4.49841 13.4388H5.08148M4.49841 13.2445H6.05327M5.08148 13.4388V14.0219H6.05327M4.88713 8.19119V1H5.66455V8.19119M4.88713 8.19119H5.66455M2.8946 60.3429L4.4877 61.936M4.4877 61.936L3.3624 63.1277M4.4877 57.8211L3.615 58.6938M4.4877 57.8211L4.1097 57.4255M4.4877 50.9496L5.7502 52.2121M5.7502 52.2121L6.44198 51.5091M5.11061 50.5609L5.85891 51.3092M5.85891 51.3092V53.4334M6.44198 51.5091L7.11261 52.1797M8.36631 53.4334L7.11261 52.1797M8.36631 53.4334L8.24844 51.5327M5.85891 53.4334L7.11261 52.1797M6.44198 51.5327H8.24844M3.615 46.285L4.48793 47.158M5.85891 46.6737L8.08517 48.9M4.69277 55.4198L4.1097 57.4255M2.85995 40.6487V43.7584M3.52663 41.2318H5.40767M5.85891 45.6048L6.83069 46.285M4.98431 44.3415V49.7151M4.69277 65.7207V27.1409M4.69277 65.7207L4.98431 66.0122" stroke="url(#paint0_linear_1136_432)" stroke-width="0.278259"/>
<g filter="url(#filter0_d_1136_432)">
<path d="M17.7664 46.5293C16.0774 46.5293 14.6214 46.2575 13.3984 45.7139C12.1948 45.151 11.0882 44.3065 10.0787 43.1805L13.049 40.2394C13.709 40.9965 14.437 41.5886 15.233 42.0157C16.0483 42.4234 16.9899 42.6272 18.0576 42.6272C19.0283 42.6272 19.7757 42.4525 20.2999 42.1031C20.8434 41.7536 21.1152 41.2683 21.1152 40.647C21.1152 40.0841 20.9405 39.6278 20.5911 39.2784C20.2416 38.929 19.7757 38.6281 19.1933 38.3757C18.6303 38.1233 17.9994 37.8806 17.3005 37.6477C16.621 37.4147 15.9416 37.1526 15.2621 36.8614C14.5826 36.5508 13.9517 36.1723 13.3693 35.7258C12.8063 35.2598 12.3501 34.6871 12.0006 34.0077C11.6512 33.3088 11.4765 32.4352 11.4765 31.3869C11.4765 30.125 11.7774 29.0378 12.3792 28.1254C13.0004 27.213 13.8546 26.5238 14.9418 26.0579C16.0289 25.5725 17.2811 25.3299 18.6983 25.3299C20.1348 25.3299 21.4453 25.5823 22.6295 26.087C23.8331 26.5918 24.8232 27.2809 25.5997 28.1545L22.6295 31.0957C22.0082 30.455 21.3773 29.9794 20.7367 29.6688C20.1154 29.3582 19.4068 29.2029 18.6109 29.2029C17.8149 29.2029 17.184 29.3582 16.7181 29.6688C16.2522 29.96 16.0192 30.3871 16.0192 30.9501C16.0192 31.4742 16.1939 31.9013 16.5434 32.2313C16.8928 32.542 17.349 32.8137 17.912 33.0467C18.4944 33.2797 19.1254 33.5126 19.8048 33.7456C20.5037 33.9785 21.1929 34.2503 21.8723 34.5609C22.5518 34.8716 23.173 35.2695 23.736 35.7549C24.3184 36.2208 24.7844 36.8226 25.1338 37.5603C25.4832 38.2786 25.658 39.1716 25.658 40.2394C25.658 42.2001 24.9591 43.7435 23.5613 44.8695C22.1635 45.976 20.2319 46.5293 17.7664 46.5293ZM38.5543 46.5584C37.0012 46.5584 35.5646 46.2866 34.2445 45.7431C32.9438 45.1995 31.7984 44.4424 30.8083 43.4717C29.8183 42.501 29.0514 41.375 28.5079 40.0938C27.9643 38.7931 27.6925 37.3953 27.6925 35.9005C27.6925 34.3862 27.9643 32.9885 28.5079 31.7072C29.0514 30.4259 29.8086 29.3096 30.7792 28.3584C31.7499 27.3877 32.8856 26.6403 34.1863 26.1161C35.5064 25.5725 36.943 25.3008 38.496 25.3008C40.0297 25.3008 41.4469 25.5725 42.7476 26.1161C44.0677 26.6403 45.2131 27.3877 46.1838 28.3584C47.1738 29.3096 47.9407 30.4356 48.4842 31.7363C49.0278 33.0176 49.2996 34.4153 49.2996 35.9296C49.2996 37.4244 49.0278 38.8222 48.4842 40.1229C47.9407 41.4042 47.1835 42.5301 46.2129 43.5008C45.2422 44.4521 44.0968 45.1995 42.7767 45.7431C41.476 46.2866 40.0685 46.5584 38.5543 46.5584ZM38.496 42.3943C39.7191 42.3943 40.7868 42.1225 41.6993 41.5789C42.6311 41.0353 43.3494 40.2782 43.8541 39.3075C44.3589 38.3174 44.6113 37.1818 44.6113 35.9005C44.6113 34.9298 44.4657 34.0562 44.1745 33.2797C43.8833 32.4837 43.4659 31.8042 42.9223 31.2413C42.3787 30.6589 41.7284 30.2221 40.9713 29.9309C40.2335 29.6202 39.4085 29.4649 38.496 29.4649C37.273 29.4649 36.1956 29.7367 35.2637 30.2803C34.3513 30.8045 33.6427 31.5519 33.138 32.5225C32.6332 33.4738 32.3808 34.5998 32.3808 35.9005C32.3808 36.8711 32.5264 37.7545 32.8176 38.5504C33.1088 39.3464 33.5165 40.0355 34.0407 40.6179C34.5842 41.1809 35.2346 41.6177 35.9917 41.9283C36.7488 42.2389 37.5836 42.3943 38.496 42.3943ZM52.2018 46.209V25.6502H56.7737V46.209H52.2018ZM55.7254 46.209V42.1904H65.8883V46.209H55.7254ZM66.4129 46.209L74.5665 25.6502H78.7016L86.7678 46.209H81.9339L75.7604 29.1446H77.4203L71.1595 46.209H66.4129ZM71.043 42.4816V38.7542H82.2542V42.4816H71.043ZM88.9432 46.209V25.6502H92.1464L93.515 29.7561V46.209H88.9432ZM103.125 46.209L91.0107 30.688L92.1464 25.6502L104.26 41.1712L103.125 46.209ZM103.125 46.209L101.902 42.1031V25.6502H106.473V46.209H103.125ZM108.899 46.209L117.052 25.6502H121.187L129.254 46.209H124.42L118.246 29.1446H119.906L113.645 46.209H108.899ZM113.529 42.4816V38.7542H124.74V42.4816H113.529Z" fill="url(#paint1_linear_1136_432)"/>
</g>
<path d="M15.1858 67.5613L9.03389 51.9484H12.2986L17.0513 64.5853H15.7854L20.5825 51.9484H23.8028L17.5843 67.5613H15.1858ZM25.8478 67.5613V51.9484H28.8682V67.5613H25.8478ZM34.2932 67.5613V65.0961H38.3575C39.083 65.0961 39.6456 64.874 40.0454 64.4298C40.4599 63.9856 40.6672 63.46 40.6672 62.853C40.6672 62.4384 40.5784 62.0609 40.4007 61.7203C40.223 61.3798 39.9565 61.1133 39.6012 60.9208C39.2606 60.7135 38.8461 60.6099 38.3575 60.6099H34.2932V58.1669H38.0243C38.6462 58.1669 39.1422 58.0114 39.5123 57.7005C39.8973 57.3896 40.0898 56.9232 40.0898 56.3014C40.0898 55.6647 39.8973 55.1909 39.5123 54.88C39.1422 54.5691 38.6462 54.4136 38.0243 54.4136H34.2932V51.9484H38.3797C39.4161 51.9484 40.2823 52.1409 40.9781 52.5258C41.6888 52.896 42.2218 53.392 42.5772 54.0138C42.9325 54.6209 43.1102 55.2871 43.1102 56.0126C43.1102 56.901 42.8363 57.6709 42.2885 58.3224C41.7554 58.959 40.9707 59.4328 39.9343 59.7437L40.0676 58.7665C41.2224 59.0923 42.1108 59.6327 42.7326 60.3878C43.3693 61.1281 43.6876 62.0239 43.6876 63.0751C43.6876 63.9042 43.4803 64.6593 43.0658 65.3404C42.666 66.0067 42.0738 66.5471 41.2891 66.9616C40.5192 67.3614 39.579 67.5613 38.4685 67.5613H34.2932ZM32.0724 67.5613V51.9484H35.0706V67.5613H32.0724ZM46.0831 67.5613V51.9484H49.1035V67.5613H46.0831ZM48.304 67.5613V64.8962H56.9432V67.5613H48.304ZM48.304 60.8764V58.3002H56.1659V60.8764H48.304ZM48.304 54.6135V51.9484H56.8322V54.6135H48.304ZM68.3114 67.7834C67.0529 67.7834 65.9721 67.5687 65.0689 67.1393C64.1806 66.7099 63.3736 66.0659 62.6481 65.2071L64.6469 63.2083C65.1059 63.8154 65.6389 64.2892 66.246 64.6297C66.853 64.9554 67.5933 65.1183 68.4669 65.1183C69.2516 65.1183 69.8735 64.9628 70.3324 64.6519C70.8062 64.341 71.0431 63.9116 71.0431 63.3638C71.0431 62.89 70.9099 62.505 70.6434 62.2089C70.3769 61.9128 70.0215 61.6611 69.5773 61.4538C69.148 61.2465 68.6668 61.0615 68.1338 60.8986C67.6155 60.7209 67.0899 60.521 66.5569 60.299C66.0387 60.0769 65.5575 59.803 65.1133 59.4772C64.684 59.1367 64.336 58.7073 64.0695 58.1891C63.803 57.6561 63.6698 56.9898 63.6698 56.1903C63.6698 55.2427 63.8992 54.4358 64.3582 53.7695C64.8172 53.1033 65.4465 52.5925 66.246 52.2371C67.0455 51.8818 67.9487 51.7041 68.9555 51.7041C70.0215 51.7041 70.9839 51.904 71.8426 52.3037C72.7014 52.7035 73.4047 53.2217 73.9525 53.8584L71.9537 55.8572C71.4947 55.3538 71.0209 54.9836 70.5323 54.7467C70.0585 54.5098 69.5181 54.3914 68.9111 54.3914C68.2152 54.3914 67.6674 54.5246 67.2676 54.7911C66.8678 55.0577 66.668 55.4426 66.668 55.946C66.668 56.3754 66.8012 56.7233 67.0677 56.9898C67.3342 57.2563 67.6822 57.4858 68.1115 57.6783C68.5557 57.8708 69.0369 58.0559 69.5551 58.2335C70.0881 58.4112 70.6137 58.6111 71.132 58.8332C71.665 59.0553 72.1462 59.344 72.5755 59.6993C73.0197 60.0547 73.3751 60.5136 73.6416 61.0763C73.9081 61.6241 74.0413 62.3052 74.0413 63.1195C74.0413 64.5705 73.5305 65.7105 72.5089 66.5397C71.4873 67.3688 70.0881 67.7834 68.3114 67.7834ZM79.6605 67.5613V52.2815H82.7032V67.5613H79.6605ZM74.6857 54.6357V51.9484H87.678V54.6357H74.6857ZM86.5699 67.5613L92.8551 51.9484H95.3203L101.583 67.5613H98.3629L93.5213 54.7467H94.6318L89.7236 67.5613H86.5699ZM89.9013 64.6519V62.1201H98.2962V64.6519H89.9013ZM105.426 67.5613V52.2815H108.469V67.5613H105.426ZM100.452 54.6357V51.9484H113.444V54.6357H100.452ZM115.529 67.5613V51.9484H118.55V67.5613H115.529ZM129.061 67.8056C127.921 67.8056 126.855 67.5983 125.863 67.1837C124.885 66.7692 124.027 66.1991 123.286 65.4736C122.561 64.7333 121.991 63.8746 121.576 62.8974C121.162 61.9054 120.954 60.8468 120.954 59.7215C120.954 58.5963 121.154 57.5525 121.554 56.5901C121.969 55.6129 122.539 54.7615 123.264 54.036C124.004 53.2957 124.863 52.7257 125.84 52.326C126.818 51.9114 127.876 51.7041 129.016 51.7041C130.171 51.7041 131.237 51.9114 132.214 52.326C133.192 52.7257 134.043 53.2957 134.768 54.036C135.509 54.7615 136.086 55.6129 136.501 56.5901C136.915 57.5673 137.122 58.6185 137.122 59.7437C137.122 60.869 136.915 61.9202 136.501 62.8974C136.086 63.8746 135.509 64.7333 134.768 65.4736C134.043 66.1991 133.192 66.7692 132.214 67.1837C131.252 67.5983 130.201 67.8056 129.061 67.8056ZM129.016 64.985C130.023 64.985 130.897 64.763 131.637 64.3188C132.377 63.8746 132.955 63.2602 133.369 62.4754C133.799 61.6907 134.013 60.7728 134.013 59.7215C134.013 58.9516 133.895 58.2483 133.658 57.6117C133.421 56.975 133.08 56.4272 132.636 55.9682C132.192 55.4944 131.666 55.1317 131.059 54.88C130.452 54.6283 129.771 54.5024 129.016 54.5024C128.039 54.5024 127.173 54.7245 126.418 55.1687C125.677 55.5981 125.093 56.2051 124.663 56.9898C124.249 57.7745 124.041 58.6851 124.041 59.7215C124.041 60.5062 124.16 61.2243 124.397 61.8758C124.648 62.5273 124.989 63.0825 125.418 63.5415C125.863 64.0004 126.388 64.3558 126.995 64.6075C127.617 64.8592 128.291 64.985 129.016 64.985ZM139.517 67.5613V51.9484H141.627L142.537 54.9688V67.5613H139.517ZM150.31 67.5613L141.049 55.5685L141.627 51.9484L150.888 63.9412L150.31 67.5613ZM150.31 67.5613L149.444 64.6297V51.9484H152.487V67.5613H150.31Z" fill="white"/>
<defs>
<filter id="filter0_d_1136_432" x="8.00872" y="25.3008" width="123.315" height="25.3964" filterUnits="userSpaceOnUse" color-interpolation-filters="sRGB">
<feFlood flood-opacity="0" result="BackgroundImageFix"/>
<feColorMatrix in="SourceAlpha" type="matrix" values="0 0 0 0 0 0 0 0 0 0 0 0 0 0 0 0 0 0 127 0" result="hardAlpha"/>
<feOffset dy="2.06941"/>
<feGaussianBlur stdDeviation="1.0347"/>
<feComposite in2="hardAlpha" operator="out"/>
<feColorMatrix type="matrix" values="0 0 0 0 0.152941 0 0 0 0 0.0588235 0 0 0 0 0.243137 0 0 0 1 0"/>
<feBlend mode="normal" in2="BackgroundImageFix" result="effect1_dropShadow_1136_432"/>
<feBlend mode="normal" in="SourceGraphic" in2="effect1_dropShadow_1136_432" result="shape"/>
</filter>
<linearGradient id="paint0_linear_1136_432" x1="5.17866" y1="1" x2="5.17866" y2="69.4134" gradientUnits="userSpaceOnUse">
<stop stop-color="#FEDCB2"/>
<stop offset="0.164" stop-color="#FE61B5"/>
<stop offset="0.804" stop-color="#7973FE"/>
<stop offset="1" stop-color="#7CC0FF"/>
</linearGradient>
<linearGradient id="paint1_linear_1136_432" x1="9.14453" y1="35.209" x2="130.145" y2="35.209" gradientUnits="userSpaceOnUse">
<stop stop-color="#FEDCB2"/>
<stop offset="0.184" stop-color="#FF52C6"/>
<stop offset="0.844" stop-color="#7A65FD"/>
<stop offset="1" stop-color="#7CC0FF"/>
</linearGradient>
</defs>
</svg>
